%TF.GenerationSoftware,KiCad,Pcbnew,10.0.4*%
%TF.CreationDate,2026-06-25T13:32:17+03:00*%
%TF.ProjectId,led_and_resistor,6c65645f-616e-4645-9f72-65736973746f,rev?*%
%TF.SameCoordinates,Original*%
%TF.FileFunction,Copper,L1,Top*%
%TF.FilePolarity,Positive*%
%FSLAX46Y46*%
G04 Gerber Fmt 4.6, Leading zero omitted, Abs format (unit mm)*
G04 Created by KiCad (PCBNEW 10.0.4) date 2026-06-25 13:32:17*
%MOMM*%
%LPD*%
G01*
G04 APERTURE LIST*
G04 Aperture macros list*
%AMRoundRect*
0 Rectangle with rounded corners*
0 $1 Rounding radius*
0 $2 $3 $4 $5 $6 $7 $8 $9 X,Y pos of 4 corners*
0 Add a 4 corners polygon primitive as box body*
4,1,4,$2,$3,$4,$5,$6,$7,$8,$9,$2,$3,0*
0 Add four circle primitives for the rounded corners*
1,1,$1+$1,$2,$3*
1,1,$1+$1,$4,$5*
1,1,$1+$1,$6,$7*
1,1,$1+$1,$8,$9*
0 Add four rect primitives between the rounded corners*
20,1,$1+$1,$2,$3,$4,$5,0*
20,1,$1+$1,$4,$5,$6,$7,0*
20,1,$1+$1,$6,$7,$8,$9,0*
20,1,$1+$1,$8,$9,$2,$3,0*%
G04 Aperture macros list end*
%TA.AperFunction,SMDPad,CuDef*%
%ADD10RoundRect,0.250000X0.550000X-0.250000X0.550000X0.250000X-0.550000X0.250000X-0.550000X-0.250000X0*%
%TD*%
%TA.AperFunction,ComponentPad*%
%ADD11R,1.800000X1.800000*%
%TD*%
%TA.AperFunction,ComponentPad*%
%ADD12C,1.800000*%
%TD*%
%TA.AperFunction,ComponentPad*%
%ADD13R,1.700000X1.700000*%
%TD*%
%TA.AperFunction,ComponentPad*%
%ADD14C,1.700000*%
%TD*%
%TA.AperFunction,ComponentPad*%
%ADD15C,1.600000*%
%TD*%
%TA.AperFunction,ComponentPad*%
%ADD16R,1.600000X1.600000*%
%TD*%
%TA.AperFunction,ComponentPad*%
%ADD17O,1.600000X1.600000*%
%TD*%
%TA.AperFunction,ViaPad*%
%ADD18C,0.600000*%
%TD*%
%TA.AperFunction,Conductor*%
%ADD19C,0.250000*%
%TD*%
G04 APERTURE END LIST*
D10*
%TO.P,SW1,1,C_1*%
%TO.N,unconnected-(SW1-C-Pad1)*%
X154500000Y-54500000D03*
%TO.P,SW1,2,B_2*%
%TO.N,Net-(BT1-+)*%
X152200000Y-52750000D03*
%TO.P,SW1,3,A_3*%
%TO.N,VCC*%
X154500000Y-51000000D03*
%TD*%
D11*
%TO.P,Kirmizi_Led1,1,K_1*%
%TO.N,Net-(Kirmizi_Led1-K)*%
X217960000Y-132000000D03*
D12*
%TO.P,Kirmizi_Led1,2,A_2*%
%TO.N,GND*%
X220500000Y-132000000D03*
%TD*%
D11*
%TO.P,Sari_Led1,1,K_1*%
%TO.N,Net-(Sari_Led1-K)*%
X217960000Y-141000000D03*
D12*
%TO.P,Sari_Led1,2,A_2*%
%TO.N,GND*%
X220500000Y-141000000D03*
%TD*%
D11*
%TO.P,Yesil_Led1,1,K_1*%
%TO.N,Net-(Yesil_Led1-K)*%
X217960000Y-150500000D03*
D12*
%TO.P,Yesil_Led1,2,A_2*%
%TO.N,GND*%
X220500000Y-150500000D03*
%TD*%
D13*
%TO.P,BT1,1,+_1*%
%TO.N,Net-(BT1-+)*%
X136500000Y-52960000D03*
D14*
%TO.P,BT1,2,-_2*%
%TO.N,GND*%
X136500000Y-55500000D03*
%TD*%
D15*
%TO.P,R3,1*%
%TO.N,Net-(Yesil_Led1-K)*%
X183000000Y-150500000D03*
%TO.P,R3,2*%
%TO.N,Y_Led*%
X172840000Y-150500000D03*
%TD*%
D16*
%TO.P,A1,1,NC_1*%
%TO.N,unconnected-(A1-NC-Pad1)*%
X147520000Y-68240000D03*
D17*
%TO.P,A1,2,IOREF_2*%
%TO.N,unconnected-(A1-IOREF-Pad2)*%
X150060000Y-68240000D03*
%TO.P,A1,3,~{RESET}_3*%
%TO.N,unconnected-(A1-~{RESET}-Pad3)*%
X152600000Y-68240000D03*
%TO.P,A1,4,3V3_4*%
%TO.N,unconnected-(A1-3V3-Pad4)*%
X155140000Y-68240000D03*
%TO.P,A1,5,+5V_5*%
%TO.N,unconnected-(A1-+5V-Pad5)*%
X157680000Y-68240000D03*
%TO.P,A1,6,GND_6*%
%TO.N,unconnected-(A1-GND-Pad6)*%
X160220000Y-68240000D03*
%TO.P,A1,7,GND_7*%
%TO.N,GND*%
X162760000Y-68240000D03*
%TO.P,A1,8,VIN_8*%
%TO.N,VCC*%
X165300000Y-68240000D03*
%TO.P,A1,9,A0_9*%
%TO.N,unconnected-(A1-A0-Pad9)*%
X170380000Y-68240000D03*
%TO.P,A1,10,A1_10*%
%TO.N,unconnected-(A1-A1-Pad10)*%
X172920000Y-68240000D03*
%TO.P,A1,11,A2_11*%
%TO.N,unconnected-(A1-A2-Pad11)*%
X175460000Y-68240000D03*
%TO.P,A1,12,A3_12*%
%TO.N,unconnected-(A1-A3-Pad12)*%
X178000000Y-68240000D03*
%TO.P,A1,13,SDA/A4_13*%
%TO.N,unconnected-(A1-SDA{slash}A4-Pad13)*%
X180540000Y-68240000D03*
%TO.P,A1,14,SCL/A5_14*%
%TO.N,unconnected-(A1-SCL{slash}A5-Pad14)*%
X183080000Y-68240000D03*
%TO.P,A1,15,D0/RX_15*%
%TO.N,unconnected-(A1-D0{slash}RX-Pad15)*%
X183080000Y-116500000D03*
%TO.P,A1,16,D1/TX_16*%
%TO.N,unconnected-(A1-D1{slash}TX-Pad16)*%
X180540000Y-116500000D03*
%TO.P,A1,17,D2_17*%
%TO.N,K_Led*%
X178000000Y-116500000D03*
%TO.P,A1,18,D3_18*%
%TO.N,S_Led*%
X175460000Y-116500000D03*
%TO.P,A1,19,D4_19*%
%TO.N,Y_Led*%
X172920000Y-116500000D03*
%TO.P,A1,20,D5_20*%
%TO.N,unconnected-(A1-D5-Pad20)*%
X170380000Y-116500000D03*
%TO.P,A1,21,D6_21*%
%TO.N,unconnected-(A1-D6-Pad21)*%
X167840000Y-116500000D03*
%TO.P,A1,22,D7_22*%
%TO.N,unconnected-(A1-D7-Pad22)*%
X165300000Y-116500000D03*
%TO.P,A1,23,D8_23*%
%TO.N,unconnected-(A1-D8-Pad23)*%
X161240000Y-116500000D03*
%TO.P,A1,24,D9_24*%
%TO.N,unconnected-(A1-D9-Pad24)*%
X158700000Y-116500000D03*
%TO.P,A1,25,D10_25*%
%TO.N,unconnected-(A1-D10-Pad25)*%
X156160000Y-116500000D03*
%TO.P,A1,26,D11_26*%
%TO.N,unconnected-(A1-D11-Pad26)*%
X153620000Y-116500000D03*
%TO.P,A1,27,D12_27*%
%TO.N,unconnected-(A1-D12-Pad27)*%
X151080000Y-116500000D03*
%TO.P,A1,28,D13_28*%
%TO.N,unconnected-(A1-D13-Pad28)*%
X148540000Y-116500000D03*
%TO.P,A1,29,GND_29*%
%TO.N,unconnected-(A1-GND-Pad29)*%
X146000000Y-116500000D03*
%TO.P,A1,30,AREF_30*%
%TO.N,unconnected-(A1-AREF-Pad30)*%
X143460000Y-116500000D03*
%TO.P,A1,31,SDA/A4_31*%
%TO.N,unconnected-(A1-SDA{slash}A4-Pad31)*%
X140920000Y-116500000D03*
%TO.P,A1,32,SCL/A5_32*%
%TO.N,unconnected-(A1-SCL{slash}A5-Pad32)*%
X138380000Y-116500000D03*
%TD*%
D15*
%TO.P,R1,1*%
%TO.N,Net-(Kirmizi_Led1-K)*%
X188000000Y-132000000D03*
%TO.P,R1,2*%
%TO.N,K_Led*%
X177840000Y-132000000D03*
%TD*%
%TO.P,R2,1*%
%TO.N,Net-(Sari_Led1-K)*%
X185500000Y-141000000D03*
%TO.P,R2,2*%
%TO.N,S_Led*%
X175340000Y-141000000D03*
%TD*%
D18*
%TO.N,VCC*%
X154500000Y-51000000D03*
X165000000Y-51000000D03*
%TO.N,Net-(BT1-+)*%
X152200000Y-52750000D03*
%TD*%
%TO.N,VCC*%
D19*
X165300000Y-51300000D02*
X165000000Y-51000000D01*
X165300000Y-68240000D02*
X165300000Y-51300000D01*
%TD*%
M02*
