M48
; DRILL file KiCad 10.0.4 date 2026-06-25T13:30:00
; FORMAT={-:-/ absolute / metric / decimal}
; #@! TF.CreationDate,2026-06-25T13:30:00+03:00
; #@! TF.GenerationSoftware,Kicad,Pcbnew,10.0.4
; #@! TF.FileFunction,Plated,1,2,PTH
FMAT,2
METRIC
; #@! TA.AperFunction,Plated,PTH,ViaDrill
T1C0.300
; #@! TA.AperFunction,Plated,PTH,ComponentDrill
T2C0.800
; #@! TA.AperFunction,Plated,PTH,ComponentDrill
T3C0.900
; #@! TA.AperFunction,Plated,PTH,ComponentDrill
T4C1.000
%
G90
G05
T1
X152.2Y-52.75
X154.5Y-51.0
X165.0Y-51.0
T2
X172.84Y-150.5
X175.34Y-141.0
X177.84Y-132.0
X183.0Y-150.5
X185.5Y-141.0
X188.0Y-132.0
T3
X217.96Y-132.0
X217.96Y-141.0
X217.96Y-150.5
X220.5Y-132.0
X220.5Y-141.0
X220.5Y-150.5
T4
X136.5Y-52.96
X136.5Y-55.5
X138.38Y-116.5
X140.92Y-116.5
X143.46Y-116.5
X146.0Y-116.5
X147.52Y-68.24
X148.54Y-116.5
X150.06Y-68.24
X151.08Y-116.5
X152.6Y-68.24
X153.62Y-116.5
X155.14Y-68.24
X156.16Y-116.5
X157.68Y-68.24
X158.7Y-116.5
X160.22Y-68.24
X161.24Y-116.5
X162.76Y-68.24
X165.3Y-68.24
X165.3Y-116.5
X167.84Y-116.5
X170.38Y-68.24
X170.38Y-116.5
X172.92Y-68.24
X172.92Y-116.5
X175.46Y-68.24
X175.46Y-116.5
X178.0Y-68.24
X178.0Y-116.5
X180.54Y-68.24
X180.54Y-116.5
X183.08Y-68.24
X183.08Y-116.5
M30
