%TF.GenerationSoftware,KiCad,Pcbnew,10.0.4*%
%TF.CreationDate,2026-06-25T13:32:17+03:00*%
%TF.ProjectId,led_and_resistor,6c65645f-616e-4645-9f72-65736973746f,rev?*%
%TF.SameCoordinates,Original*%
%TF.FileFunction,Soldermask,Top*%
%TF.FilePolarity,Negative*%
%FSLAX46Y46*%
G04 Gerber Fmt 4.6, Leading zero omitted, Abs format (unit mm)*
G04 Created by KiCad (PCBNEW 10.0.4) date 2026-06-25 13:32:17*
%MOMM*%
%LPD*%
G01*
G04 APERTURE LIST*
G04 Aperture macros list*
%AMRoundRect*
0 Rectangle with rounded corners*
0 $1 Rounding radius*
0 $2 $3 $4 $5 $6 $7 $8 $9 X,Y pos of 4 corners*
0 Add a 4 corners polygon primitive as box body*
4,1,4,$2,$3,$4,$5,$6,$7,$8,$9,$2,$3,0*
0 Add four circle primitives for the rounded corners*
1,1,$1+$1,$2,$3*
1,1,$1+$1,$4,$5*
1,1,$1+$1,$6,$7*
1,1,$1+$1,$8,$9*
0 Add four rect primitives between the rounded corners*
20,1,$1+$1,$2,$3,$4,$5,0*
20,1,$1+$1,$4,$5,$6,$7,0*
20,1,$1+$1,$6,$7,$8,$9,0*
20,1,$1+$1,$8,$9,$2,$3,0*%
G04 Aperture macros list end*
%ADD10RoundRect,0.250000X0.550000X-0.250000X0.550000X0.250000X-0.550000X0.250000X-0.550000X-0.250000X0*%
%ADD11R,1.800000X1.800000*%
%ADD12C,1.800000*%
%ADD13R,1.700000X1.700000*%
%ADD14C,1.700000*%
%ADD15C,1.600000*%
%ADD16R,1.600000X1.600000*%
%ADD17O,1.600000X1.600000*%
G04 APERTURE END LIST*
D10*
%TO.C,SW1*%
X154500000Y-54500000D03*
X152200000Y-52750000D03*
X154500000Y-51000000D03*
%TD*%
D11*
%TO.C,Kirmizi_Led1*%
X217960000Y-132000000D03*
D12*
X220500000Y-132000000D03*
%TD*%
D11*
%TO.C,Sari_Led1*%
X217960000Y-141000000D03*
D12*
X220500000Y-141000000D03*
%TD*%
D11*
%TO.C,Yesil_Led1*%
X217960000Y-150500000D03*
D12*
X220500000Y-150500000D03*
%TD*%
D13*
%TO.C,BT1*%
X136500000Y-52960000D03*
D14*
X136500000Y-55500000D03*
%TD*%
D15*
%TO.C,R3*%
X183000000Y-150500000D03*
X172840000Y-150500000D03*
%TD*%
D16*
%TO.C,A1*%
X147520000Y-68240000D03*
D17*
X150060000Y-68240000D03*
X152600000Y-68240000D03*
X155140000Y-68240000D03*
X157680000Y-68240000D03*
X160220000Y-68240000D03*
X162760000Y-68240000D03*
X165300000Y-68240000D03*
X170380000Y-68240000D03*
X172920000Y-68240000D03*
X175460000Y-68240000D03*
X178000000Y-68240000D03*
X180540000Y-68240000D03*
X183080000Y-68240000D03*
X183080000Y-116500000D03*
X180540000Y-116500000D03*
X178000000Y-116500000D03*
X175460000Y-116500000D03*
X172920000Y-116500000D03*
X170380000Y-116500000D03*
X167840000Y-116500000D03*
X165300000Y-116500000D03*
X161240000Y-116500000D03*
X158700000Y-116500000D03*
X156160000Y-116500000D03*
X153620000Y-116500000D03*
X151080000Y-116500000D03*
X148540000Y-116500000D03*
X146000000Y-116500000D03*
X143460000Y-116500000D03*
X140920000Y-116500000D03*
X138380000Y-116500000D03*
%TD*%
D15*
%TO.C,R1*%
X188000000Y-132000000D03*
X177840000Y-132000000D03*
%TD*%
%TO.C,R2*%
X185500000Y-141000000D03*
X175340000Y-141000000D03*
%TD*%
M02*
