%TF.GenerationSoftware,KiCad,Pcbnew,10.0.4*%
%TF.CreationDate,2026-06-25T13:32:17+03:00*%
%TF.ProjectId,led_and_resistor,6c65645f-616e-4645-9f72-65736973746f,rev?*%
%TF.SameCoordinates,Original*%
%TF.FileFunction,Soldermask,Bot*%
%TF.FilePolarity,Negative*%
%FSLAX46Y46*%
G04 Gerber Fmt 4.6, Leading zero omitted, Abs format (unit mm)*
G04 Created by KiCad (PCBNEW 10.0.4) date 2026-06-25 13:32:17*
%MOMM*%
%LPD*%
G01*
G04 APERTURE LIST*
%ADD10R,1.800000X1.800000*%
%ADD11C,1.800000*%
%ADD12R,1.700000X1.700000*%
%ADD13C,1.700000*%
%ADD14C,1.600000*%
%ADD15R,1.600000X1.600000*%
%ADD16O,1.600000X1.600000*%
G04 APERTURE END LIST*
D10*
%TO.C,Kirmizi_Led1*%
X217960000Y-132000000D03*
D11*
X220500000Y-132000000D03*
%TD*%
D10*
%TO.C,Sari_Led1*%
X217960000Y-141000000D03*
D11*
X220500000Y-141000000D03*
%TD*%
D10*
%TO.C,Yesil_Led1*%
X217960000Y-150500000D03*
D11*
X220500000Y-150500000D03*
%TD*%
D12*
%TO.C,BT1*%
X136500000Y-52960000D03*
D13*
X136500000Y-55500000D03*
%TD*%
D14*
%TO.C,R3*%
X183000000Y-150500000D03*
X172840000Y-150500000D03*
%TD*%
D15*
%TO.C,A1*%
X147520000Y-68240000D03*
D16*
X150060000Y-68240000D03*
X152600000Y-68240000D03*
X155140000Y-68240000D03*
X157680000Y-68240000D03*
X160220000Y-68240000D03*
X162760000Y-68240000D03*
X165300000Y-68240000D03*
X170380000Y-68240000D03*
X172920000Y-68240000D03*
X175460000Y-68240000D03*
X178000000Y-68240000D03*
X180540000Y-68240000D03*
X183080000Y-68240000D03*
X183080000Y-116500000D03*
X180540000Y-116500000D03*
X178000000Y-116500000D03*
X175460000Y-116500000D03*
X172920000Y-116500000D03*
X170380000Y-116500000D03*
X167840000Y-116500000D03*
X165300000Y-116500000D03*
X161240000Y-116500000D03*
X158700000Y-116500000D03*
X156160000Y-116500000D03*
X153620000Y-116500000D03*
X151080000Y-116500000D03*
X148540000Y-116500000D03*
X146000000Y-116500000D03*
X143460000Y-116500000D03*
X140920000Y-116500000D03*
X138380000Y-116500000D03*
%TD*%
D14*
%TO.C,R1*%
X188000000Y-132000000D03*
X177840000Y-132000000D03*
%TD*%
%TO.C,R2*%
X185500000Y-141000000D03*
X175340000Y-141000000D03*
%TD*%
M02*
